# xmcd CD database file
#
# Track frame offsets:
#	150
#	4764
#	15680
#	32147
#	41075
#	55045
#	74045
#	89223
#	108019
#	120164
#	134875
#	156972
#
# Disc length: 2310 seconds
#
# Revision: 0
# Processed by: cddbd v1.5.1PL0 Copyright (c) Steve Scherf et al.
# Submitted via: CDex 1.51
#
DISCID=a409040c
DTITLE=3.6milk - Rock! Rock! Rock Rock Rock!
DYEAR=1999
DGENRE=Salsa
TTITLE0=Rock!Rock!Rock Rock Rock!
TTITLE1=My-My-Mine
TTITLE2=Stand Up!Make a Change 
TTITLE3=Money
TTITLE4=San Francisco
TTITLE5=Lean on me
TTITLE6=Walkin' Blues
TTITLE7=Start Walkin'
TTITLE8=Cheers
TTITLE9=All Right
TTITLE10=B Crew
TTITLE11=I Wanna Be Free(ボーナス・トラック)
EXTD=YEAR: 1999
EXTT0=
EXTT1=
EXTT2=
EXTT3=
EXTT4=
EXTT5=
EXTT6=
EXTT7=
EXTT8=
EXTT9=
EXTT10=
EXTT11=
PLAYORDER=
